{
  "accessors": [
    {
      "bufferView": 1,
      "componentType": 5126,
      "count": 48,
      "max": [
        0.6458186507225037,
        0.6380061507225037,
        0.1590700000524521
      ],
      "min": [
        -0.6458186507225037,
        -0.6536311507225037,
        0.15627944469451904
      ],
      "type": "VEC3"
    },
    {
      "bufferView": 1,
      "byteOffset": 576,
      "componentType": 5126,
      "count": 48,
      "max": [
        0.06975644081830978,
        0.06446951627731323,
        0.9979197382926941
      ],
      "min": [
        -0.06446949392557144,
        -0.06975644081830978,
        0.9975640773773193
      ],
      "type": "VEC3"
    },
    {
      "bufferView": 0,
      "componentType": 5125,
      "count": 120,
      "type": "SCALAR"
    }
  ],
  "asset": {
    "extras": {
      "author": "4lepy (https://sketchfab.com/4lepy)",
      "license": "CC-BY-4.0 (http://creativecommons.org/licenses/by/4.0/)",
      "source": "https://sketchfab.com/3d-models/spiders-web-604836f1fdbd45db861e48a58e07b277",
      "title": "spiders web"
    },
    "generator": "Sketchfab-12.67.0",
    "version": "2.0"
  },
  "bufferViews": [
    {
      "buffer": 0,
      "byteLength": 480,
      "name": "floatBufferViews",
      "target": 34963
    },
    {
      "buffer": 0,
      "byteLength": 1152,
      "byteOffset": 480,
      "byteStride": 12,
      "name": "floatBufferViews",
      "target": 34962
    }
  ],
  "buffers": [
    {
      "byteLength": 1632,
      "uri": "scene.bin"
    }
  ],
  "materials": [
    {
      "doubleSided": true,
      "name": "steel",
      "pbrMetallicRoughness": {
        "baseColorFactor": [
          0.796079,
          0.866667,
          0.803922,
          1.0
        ],
        "metallicFactor": 0.0,
        "roughnessFactor": 0.8929713596497552
      }
    }
  ],
  "meshes": [
    {
      "name": "Shape001_steel_0",
      "primitives": [
        {
          "attributes": {
            "NORMAL": 1,
            "POSITION": 0
          },
          "indices": 2,
          "material": 0,
          "mode": 4
        }
      ]
    }
  ],
  "nodes": [
    {
      "children": [
        1
      ],
      "matrix": [
        1.0,
        0.0,
        0.0,
        0.0,
        0.0,
        2.220446049250313e-16,
        -1.0,
        0.0,
        0.0,
        1.0,
        2.220446049250313e-16,
        0.0,
        0.0,
        0.0,
        0.0,
        1.0
      ],
      "name": "Sketchfab_model"
    },
    {
      "children": [
        2
      ],
      "matrix": [
        1.0,
        0.0,
        0.0,
        0.0,
        0.0,
        0.0,
        1.0,
        0.0,
        0.0,
        -1.0,
        0.0,
        0.0,
        0.0,
        0.0,
        0.0,
        1.0
      ],
      "name": "4d2a9afa5ba0491c9d07d5d256722445.fbx"
    },
    {
      "children": [
        3
      ],
      "name": "RootNode"
    },
    {
      "children": [
        4
      ],
      "matrix": [
        0.3939606249332428,
        0.0,
        0.0,
        0.0,
        0.0,
        0.3939606249332375,
        6.41843343298139e-08,
        0.0,
        0.0,
        -6.41843343298139e-08,
        0.3939606249332375,
        0.0,
        0.0,
        0.0,
        0.0,
        1.0
      ],
      "name": "Shape001"
    },
    {
      "mesh": 0,
      "name": "Shape001_steel_0"
    }
  ],
  "scene": 0,
  "scenes": [
    {
      "name": "Sketchfab_Scene",
      "nodes": [
        0
      ]
    }
  ]
}
