{
  "accessors": [
    {
      "bufferView": 2,
      "componentType": 5126,
      "count": 975,
      "max": [
        0.7307985424995422,
        1.943941593170166,
        4.830169200897217
      ],
      "min": [
        -0.7261985540390015,
        -1.9439399242401123,
        -1.93522714653227e-06
      ],
      "type": "VEC3"
    },
    {
      "bufferView": 2,
      "byteOffset": 11700,
      "componentType": 5126,
      "count": 975,
      "max": [
        1.0,
        1.0,
        1.0
      ],
      "min": [
        -1.0,
        -1.0,
        -1.0
      ],
      "type": "VEC3"
    },
    {
      "bufferView": 3,
      "componentType": 5126,
      "count": 975,
      "max": [
        1.0,
        1.0,
        1.0,
        1.0
      ],
      "min": [
        -1.0,
        -1.0,
        -1.0,
        1.0
      ],
      "type": "VEC4"
    },
    {
      "bufferView": 1,
      "componentType": 5126,
      "count": 975,
      "max": [
        0.9900000691413879,
        0.9900000095367432
      ],
      "min": [
        0.009999999776482582,
        0.023517251014709473
      ],
      "type": "VEC2"
    },
    {
      "bufferView": 1,
      "byteOffset": 7800,
      "componentType": 5126,
      "count": 975,
      "max": [
        0.9900000691413879,
        0.9900000095367432
      ],
      "min": [
        0.009999999776482582,
        0.023517251014709473
      ],
      "type": "VEC2"
    },
    {
      "bufferView": 1,
      "byteOffset": 15600,
      "componentType": 5126,
      "count": 975,
      "max": [
        0.9900000691413879,
        0.9900000095367432
      ],
      "min": [
        0.009999999776482582,
        0.023517251014709473
      ],
      "type": "VEC2"
    },
    {
      "bufferView": 0,
      "componentType": 5125,
      "count": 3006,
      "type": "SCALAR"
    },
    {
      "bufferView": 2,
      "byteOffset": 23400,
      "componentType": 5126,
      "count": 806,
      "max": [
        0.3408476412296295,
        2.174105644226074,
        1.9557493925094604
      ],
      "min": [
        -0.11365006864070892,
        -0.060878101736307144,
        -1.0489956140518188
      ],
      "type": "VEC3"
    },
    {
      "bufferView": 2,
      "byteOffset": 33072,
      "componentType": 5126,
      "count": 806,
      "max": [
        1.0,
        1.0,
        1.0
      ],
      "min": [
        -1.0,
        -1.0,
        -1.0
      ],
      "type": "VEC3"
    },
    {
      "bufferView": 3,
      "byteOffset": 15600,
      "componentType": 5126,
      "count": 806,
      "max": [
        1.0,
        1.0,
        1.0,
        1.0
      ],
      "min": [
        -1.0,
        -1.0,
        -1.0,
        1.0
      ],
      "type": "VEC4"
    },
    {
      "bufferView": 1,
      "byteOffset": 23400,
      "componentType": 5126,
      "count": 806,
      "max": [
        0.9832413792610168,
        0.9900000095367432
      ],
      "min": [
        0.009999999776482582,
        0.015068888664245605
      ],
      "type": "VEC2"
    },
    {
      "bufferView": 1,
      "byteOffset": 29848,
      "componentType": 5126,
      "count": 806,
      "max": [
        0.9832413792610168,
        0.9900000095367432
      ],
      "min": [
        0.009999999776482582,
        0.015068888664245605
      ],
      "type": "VEC2"
    },
    {
      "bufferView": 1,
      "byteOffset": 36296,
      "componentType": 5126,
      "count": 806,
      "max": [
        0.9832413792610168,
        0.9900000095367432
      ],
      "min": [
        0.009999999776482582,
        0.015068888664245605
      ],
      "type": "VEC2"
    },
    {
      "bufferView": 0,
      "byteOffset": 12024,
      "componentType": 5125,
      "count": 2277,
      "type": "SCALAR"
    },
    {
      "bufferView": 2,
      "byteOffset": 42744,
      "componentType": 5126,
      "count": 150,
      "max": [
        0.05944021791219711,
        0.0,
        0.0594363659620285
      ],
      "min": [
        -0.05943150818347931,
        -1.4664829969406128,
        -0.3475886285305023
      ],
      "type": "VEC3"
    },
    {
      "bufferView": 2,
      "byteOffset": 44544,
      "componentType": 5126,
      "count": 150,
      "max": [
        1.0,
        1.0,
        1.0
      ],
      "min": [
        -1.0,
        -1.0,
        -1.0
      ],
      "type": "VEC3"
    },
    {
      "bufferView": 3,
      "byteOffset": 28496,
      "componentType": 5126,
      "count": 150,
      "max": [
        0.9779036641120911,
        1.0,
        1.0,
        1.0
      ],
      "min": [
        -1.0,
        -0.9999957084655762,
        -0.997802734375,
        1.0
      ],
      "type": "VEC4"
    },
    {
      "bufferView": 1,
      "byteOffset": 42744,
      "componentType": 5126,
      "count": 150,
      "max": [
        0.9528276324272156,
        0.9801255464553833
      ],
      "min": [
        0.0679314136505127,
        0.21613788604736328
      ],
      "type": "VEC2"
    },
    {
      "bufferView": 1,
      "byteOffset": 43944,
      "componentType": 5126,
      "count": 150,
      "max": [
        0.9528276324272156,
        0.9801255464553833
      ],
      "min": [
        0.0679314136505127,
        0.21613788604736328
      ],
      "type": "VEC2"
    },
    {
      "bufferView": 1,
      "byteOffset": 45144,
      "componentType": 5126,
      "count": 150,
      "max": [
        0.9528276324272156,
        0.9801255464553833
      ],
      "min": [
        0.0679314136505127,
        0.21613788604736328
      ],
      "type": "VEC2"
    },
    {
      "bufferView": 0,
      "byteOffset": 21132,
      "componentType": 5125,
      "count": 486,
      "type": "SCALAR"
    },
    {
      "bufferView": 2,
      "byteOffset": 46344,
      "componentType": 5126,
      "count": 302,
      "max": [
        0.13281939923763275,
        0.7118242383003235,
        0.09620112925767899
      ],
      "min": [
        -0.04336053505539894,
        -0.03462224453687668,
        -0.4230422079563141
      ],
      "type": "VEC3"
    },
    {
      "bufferView": 2,
      "byteOffset": 49968,
      "componentType": 5126,
      "count": 302,
      "max": [
        1.0,
        1.0,
        1.0
      ],
      "min": [
        -1.0,
        -1.0,
        -1.0
      ],
      "type": "VEC3"
    },
    {
      "bufferView": 3,
      "byteOffset": 30896,
      "componentType": 5126,
      "count": 302,
      "max": [
        1.0,
        1.0,
        1.0,
        1.0
      ],
      "min": [
        -1.0,
        -1.0,
        -1.0,
        1.0
      ],
      "type": "VEC4"
    },
    {
      "bufferView": 1,
      "byteOffset": 46344,
      "componentType": 5126,
      "count": 302,
      "max": [
        0.9832413792610168,
        0.9900000095367432
      ],
      "min": [
        0.009999999776482582,
        0.016758620738983154
      ],
      "type": "VEC2"
    },
    {
      "bufferView": 1,
      "byteOffset": 48760,
      "componentType": 5126,
      "count": 302,
      "max": [
        0.9832413792610168,
        0.9900000095367432
      ],
      "min": [
        0.009999999776482582,
        0.016758620738983154
      ],
      "type": "VEC2"
    },
    {
      "bufferView": 1,
      "byteOffset": 51176,
      "componentType": 5126,
      "count": 302,
      "max": [
        0.9832413792610168,
        0.9900000095367432
      ],
      "min": [
        0.009999999776482582,
        0.016758620738983154
      ],
      "type": "VEC2"
    },
    {
      "bufferView": 0,
      "byteOffset": 23076,
      "componentType": 5125,
      "count": 696,
      "type": "SCALAR"
    },
    {
      "bufferView": 2,
      "byteOffset": 53592,
      "componentType": 5126,
      "count": 95,
      "max": [
        0.030188612639904022,
        1.1839913895528298e-05,
        0.02871060185134411
      ],
      "min": [
        -0.030188577249646187,
        -0.7508593797683716,
        -0.23319993913173676
      ],
      "type": "VEC3"
    },
    {
      "bufferView": 2,
      "byteOffset": 54732,
      "componentType": 5126,
      "count": 95,
      "max": [
        0.9995007514953613,
        0.9387080669403076,
        0.938453733921051
      ],
      "min": [
        -0.9995007514953613,
        -0.9335894584655762,
        -0.9410585165023804
      ],
      "type": "VEC3"
    },
    {
      "bufferView": 3,
      "byteOffset": 35728,
      "componentType": 5126,
      "count": 95,
      "max": [
        0.5502703189849854,
        0.9566665887832642,
        0.9561256170272827,
        1.0
      ],
      "min": [
        -0.3685745596885681,
        -0.9946068525314331,
        -0.9930564761161804,
        1.0
      ],
      "type": "VEC4"
    },
    {
      "bufferView": 1,
      "byteOffset": 53592,
      "componentType": 5126,
      "count": 95,
      "max": [
        0.1772758811712265,
        0.9274827837944031
      ],
      "min": [
        0.03883328288793564,
        0.4408620595932007
      ],
      "type": "VEC2"
    },
    {
      "bufferView": 1,
      "byteOffset": 54352,
      "componentType": 5126,
      "count": 95,
      "max": [
        0.1772758811712265,
        0.9274827837944031
      ],
      "min": [
        0.03883328288793564,
        0.4408620595932007
      ],
      "type": "VEC2"
    },
    {
      "bufferView": 1,
      "byteOffset": 55112,
      "componentType": 5126,
      "count": 95,
      "max": [
        0.1772758811712265,
        0.9274827837944031
      ],
      "min": [
        0.03883328288793564,
        0.4408620595932007
      ],
      "type": "VEC2"
    },
    {
      "bufferView": 0,
      "byteOffset": 25860,
      "componentType": 5125,
      "count": 408,
      "type": "SCALAR"
    }
  ],
  "asset": {
    "extras": {
      "author": "DJMaesen (https://sketchfab.com/bumstrum)",
      "license": "CC-BY-4.0 (http://creativecommons.org/licenses/by/4.0/)",
      "source": "https://sketchfab.com/3d-models/dungeon-door-0507ef6c98664c4a8bc4eeb0f3c68fd9",
      "title": "Dungeon Door"
    },
    "generator": "Sketchfab-16.45.0",
    "version": "2.0"
  },
  "bufferViews": [
    {
      "buffer": 0,
      "byteLength": 27492,
      "name": "floatBufferViews",
      "target": 34963
    },
    {
      "buffer": 0,
      "byteLength": 55872,
      "byteOffset": 27492,
      "byteStride": 8,
      "name": "floatBufferViews",
      "target": 34962
    },
    {
      "buffer": 0,
      "byteLength": 55872,
      "byteOffset": 83364,
      "byteStride": 12,
      "name": "floatBufferViews",
      "target": 34962
    },
    {
      "buffer": 0,
      "byteLength": 37248,
      "byteOffset": 139236,
      "byteStride": 16,
      "name": "floatBufferViews",
      "target": 34962
    }
  ],
  "buffers": [
    {
      "byteLength": 176484,
      "uri": "scene.bin"
    }
  ],
  "images": [
    {
      "uri": "textures/doorD_baseColor.png"
    },
    {
      "uri": "textures/doorD_metallicRoughness.png"
    },
    {
      "uri": "textures/doorD_normal.png"
    }
  ],
  "materials": [
    {
      "name": "doorD",
      "normalTexture": {
        "index": 2
      },
      "pbrMetallicRoughness": {
        "baseColorTexture": {
          "index": 0
        },
        "metallicRoughnessTexture": {
          "index": 1
        }
      }
    }
  ],
  "meshes": [
    {
      "name": "frame_doorD_0",
      "primitives": [
        {
          "attributes": {
            "NORMAL": 1,
            "POSITION": 0,
            "TANGENT": 2,
            "TEXCOORD_0": 3,
            "TEXCOORD_1": 4,
            "TEXCOORD_2": 5
          },
          "indices": 6,
          "material": 0,
          "mode": 4
        }
      ]
    },
    {
      "name": "door_doorD_0",
      "primitives": [
        {
          "attributes": {
            "NORMAL": 8,
            "POSITION": 7,
            "TANGENT": 9,
            "TEXCOORD_0": 10,
            "TEXCOORD_1": 11,
            "TEXCOORD_2": 12
          },
          "indices": 13,
          "material": 0,
          "mode": 4
        }
      ]
    },
    {
      "name": "handle_doorD_0",
      "primitives": [
        {
          "attributes": {
            "NORMAL": 15,
            "POSITION": 14,
            "TANGENT": 16,
            "TEXCOORD_0": 17,
            "TEXCOORD_1": 18,
            "TEXCOORD_2": 19
          },
          "indices": 20,
          "material": 0,
          "mode": 4
        }
      ]
    },
    {
      "name": "window_doorD_0",
      "primitives": [
        {
          "attributes": {
            "NORMAL": 22,
            "POSITION": 21,
            "TANGENT": 23,
            "TEXCOORD_0": 24,
            "TEXCOORD_1": 25,
            "TEXCOORD_2": 26
          },
          "indices": 27,
          "material": 0,
          "mode": 4
        }
      ]
    },
    {
      "name": "windowhandle_doorD_0",
      "primitives": [
        {
          "attributes": {
            "NORMAL": 29,
            "POSITION": 28,
            "TANGENT": 30,
            "TEXCOORD_0": 31,
            "TEXCOORD_1": 32,
            "TEXCOORD_2": 33
          },
          "indices": 34,
          "material": 0,
          "mode": 4
        }
      ]
    }
  ],
  "nodes": [
    {
      "children": [
        1
      ],
      "matrix": [
        1.0,
        0.0,
        0.0,
        0.0,
        0.0,
        2.220446049250313e-16,
        -1.0,
        0.0,
        0.0,
        1.0,
        2.220446049250313e-16,
        0.0,
        0.0,
        0.0,
        0.0,
        1.0
      ],
      "name": "Sketchfab_model"
    },
    {
      "children": [
        2
      ],
      "matrix": [
        0.009999999776482582,
        0.0,
        0.0,
        0.0,
        0.0,
        0.0,
        0.009999999776482582,
        0.0,
        0.0,
        -0.009999999776482582,
        0.0,
        0.0,
        0.0,
        0.0,
        0.0,
        1.0
      ],
      "name": "4a9e016fb1114d94b9aa62b176b81227.fbx"
    },
    {
      "children": [
        3
      ],
      "name": "RootNode"
    },
    {
      "children": [
        4,
        5
      ],
      "matrix": [
        100.0,
        0.0,
        0.0,
        0.0,
        0.0,
        -1.629206793918314e-05,
        -99.99999999999868,
        0.0,
        0.0,
        99.99999999999868,
        -1.629206793918314e-05,
        0.0,
        0.0,
        0.0,
        0.0,
        1.0
      ],
      "name": "frame"
    },
    {
      "mesh": 0,
      "name": "frame_doorD_0"
    },
    {
      "children": [
        6,
        7,
        9,
        11
      ],
      "matrix": [
        1.0,
        0.0,
        0.0,
        0.0,
        0.0,
        1.0,
        -2.646977960169688e-23,
        0.0,
        0.0,
        2.646977960169688e-23,
        1.0,
        0.0,
        -0.5443370938301086,
        -1.0873156785964966,
        1.063106894493103,
        1.0
      ],
      "name": "door"
    },
    {
      "mesh": 1,
      "name": "door_doorD_0"
    },
    {
      "children": [
        8
      ],
      "matrix": [
        1.0,
        0.0,
        0.0,
        0.0,
        0.0,
        1.0,
        -2.646977960169688e-23,
        0.0,
        0.0,
        2.646977960169688e-23,
        1.0,
        0.0,
        -0.039446353912353516,
        2.29140043258667,
        0.4195821285247803,
        1.0
      ],
      "name": "handle"
    },
    {
      "mesh": 2,
      "name": "handle_doorD_0"
    },
    {
      "children": [
        10
      ],
      "matrix": [
        1.0,
        0.0,
        0.0,
        0.0,
        0.0,
        1.0,
        -2.646977960169688e-23,
        0.0,
        0.0,
        2.646977960169688e-23,
        1.0,
        0.0,
        -0.0010320544242858887,
        0.7377554774284363,
        1.6180392503738403,
        1.0
      ],
      "name": "window"
    },
    {
      "mesh": 3,
      "name": "window_doorD_0"
    },
    {
      "children": [
        12
      ],
      "matrix": [
        1.0,
        0.0,
        0.0,
        0.0,
        0.0,
        1.0,
        -2.646977960169688e-23,
        0.0,
        0.0,
        2.646977960169688e-23,
        1.0,
        0.0,
        -0.00011461973190307617,
        1.589367389678955,
        1.4616485834121704,
        1.0
      ],
      "name": "windowhandle"
    },
    {
      "mesh": 4,
      "name": "windowhandle_doorD_0"
    }
  ],
  "samplers": [
    {
      "magFilter": 9729,
      "minFilter": 9987,
      "wrapS": 10497,
      "wrapT": 10497
    }
  ],
  "scene": 0,
  "scenes": [
    {
      "name": "Sketchfab_Scene",
      "nodes": [
        0
      ]
    }
  ],
  "textures": [
    {
      "sampler": 0,
      "source": 0
    },
    {
      "sampler": 0,
      "source": 1
    },
    {
      "sampler": 0,
      "source": 2
    }
  ]
}
